<svg class="logo" height="100%" width="100%" viewBox="0 0 346 400" xmlns="http://www.w3.org/2000/svg" xmlns:svg="http://www.w3.org/2000/svg">
  <g>
    <defs>
      <linearGradient id="MyGradient">
        <stop offset="0%" stop-color="#009933" />
        <stop offset="16.5%" stop-color="#33cc33" />
        <stop offset="50%" stop-color="#009933" />
        <stop offset="83.5%" stop-color="#33cc33" />
        <stop offset="100%" stop-color="#009933" />
      </linearGradient>
    </defs>
    <path id="mongr" d="M 23 50 q 50 -90 100 0 q 50 90 100 0 q 50 -90 100 0
    s 18 18 18 300 q -50 -90 -112 0 q -50 90 -112 0 q -50 -90 -112 0
    s 0 -282 18 -300" stroke="url(#MyGradient)" stroke-width="10"   fill="url(#MyGradient)" />
	<path id="shinyproxy"
        fill="white" stroke="white" stroke-width="1"
        d="M 132.00,94.00
           C 132.00,94.00 132.00,110.00 132.00,110.00
             139.70,105.81 152.95,104.60 156.35,115.01
             158.00,120.07 158.00,131.43 158.00,137.00
             158.00,137.00 158.00,173.00 158.00,173.00
             158.00,173.00 137.00,173.00 137.00,173.00
             137.00,173.00 137.00,137.00 137.00,137.00
             137.00,129.78 138.32,124.11 134.00,118.00
             131.08,124.90 132.00,131.61 132.00,139.00
             132.00,139.00 132.00,173.00 132.00,173.00
             132.00,173.00 111.00,173.00 111.00,173.00
             111.00,173.00 111.00,94.00 111.00,94.00
             111.00,94.00 132.00,94.00 132.00,94.00 Z
           M 184.00,94.00
           C 184.00,94.00 184.00,104.00 184.00,104.00
             184.00,104.00 163.00,104.00 163.00,104.00
             163.00,104.00 163.00,94.00 163.00,94.00
             163.00,94.00 184.00,94.00 184.00,94.00 Z
           M 83.85,161.45
           C 86.01,162.34 89.26,157.96 86.14,153.10
             82.50,147.43 69.42,144.22 65.09,136.96
             63.21,133.81 63.05,130.55 63.00,127.00
             62.94,121.84 62.75,116.34 66.42,112.21
             73.44,104.31 95.41,105.18 102.20,113.33
             105.84,117.70 105.00,123.70 105.00,129.00
             105.00,129.00 87.00,129.00 87.00,129.00
             86.99,126.72 87.30,121.40 85.15,120.00
             83.04,118.62 80.17,122.52 82.87,126.91
             85.76,131.60 94.32,134.40 99.00,137.79
             107.51,143.97 108.58,154.51 105.36,164.00
             100.84,177.34 75.19,176.53 67.39,168.61
             63.01,164.16 63.00,155.86 63.00,150.00
             63.00,150.00 82.00,150.00 82.00,150.00
             82.00,152.33 81.36,160.44 83.85,161.45 Z
           M 217.00,107.74
           C 222.34,105.70 230.67,107.08 233.99,112.10
             236.22,115.47 235.99,119.16 236.00,123.00
             236.00,123.00 236.00,173.00 236.00,173.00
             236.00,173.00 216.00,173.00 216.00,173.00
             216.00,173.00 216.00,129.00 216.00,129.00
             216.00,126.70 216.30,121.45 214.17,120.00
             210.92,117.79 211.01,125.73 211.00,127.00
             211.00,127.00 211.00,173.00 211.00,173.00
             211.00,173.00 190.00,173.00 190.00,173.00
             190.00,173.00 190.00,108.00 190.00,108.00
             190.00,108.00 211.00,108.00 211.00,108.00
             211.00,108.00 211.00,112.00 211.00,112.00
             212.93,110.29 214.52,108.68 217.00,107.74 Z
           M 184.00,108.00
           C 184.00,108.00 184.00,173.00 184.00,173.00
             184.00,173.00 163.00,173.00 163.00,173.00
             163.00,173.00 163.00,108.00 163.00,108.00
             163.00,108.00 184.00,108.00 184.00,108.00 Z
           M 257.00,108.00
           C 257.00,108.00 263.00,148.00 263.00,148.00
             263.00,148.00 265.00,108.00 265.00,108.00
             265.00,108.00 284.00,108.00 284.00,108.00
             284.00,108.00 278.15,159.00 278.15,159.00
             277.34,165.77 276.88,174.91 270.90,179.30
             265.39,183.35 250.09,182.00 243.00,182.00
             243.00,182.00 243.00,172.00 243.00,172.00
             243.00,172.00 250.00,171.00 250.00,171.00
             250.00,171.00 238.00,108.00 238.00,108.00
             238.00,108.00 257.00,108.00 257.00,108.00 Z
           M 110.00,244.00
           C 110.00,244.00 110.00,281.00 110.00,281.00
             109.98,284.71 109.97,288.64 107.91,291.90
             104.72,296.97 96.27,298.27 91.00,296.26
             88.52,295.32 86.93,293.71 85.00,292.00
             85.00,292.00 85.00,305.00 85.00,305.00
             85.00,305.00 64.00,305.00 64.00,305.00
             64.00,305.00 64.00,231.00 64.00,231.00
             64.00,231.00 85.00,231.00 85.00,231.00
             85.00,231.00 85.00,235.00 85.00,235.00
             95.30,226.14 109.79,228.32 110.00,244.00 Z
           M 148.00,230.00
           C 148.00,233.50 148.43,249.58 147.40,251.69
             146.05,254.47 142.92,253.67 140.23,255.74
             136.82,258.35 137.02,262.15 137.00,266.00
             137.00,266.00 137.00,296.00 137.00,296.00
             137.00,296.00 116.00,296.00 116.00,296.00
             116.00,296.00 116.00,231.00 116.00,231.00
             116.00,231.00 137.00,231.00 137.00,231.00
             137.00,231.00 137.00,237.00 137.00,237.00
             139.99,231.75 142.05,230.63 148.00,230.00 Z
           M 172.00,230.00
           C 175.56,229.96 179.57,229.81 183.00,230.79
             200.60,235.79 198.17,254.36 198.00,269.00
             197.91,276.11 197.01,286.57 191.79,291.79
             185.96,297.62 178.54,297.09 171.00,297.00
             165.18,296.93 159.44,295.79 155.65,290.90
             151.56,285.62 152.42,280.97 151.77,275.00
             150.59,265.53 150.93,261.33 151.77,252.00
             152.92,240.73 153.44,234.28 166.00,230.53
             168.65,230.10 169.31,230.04 172.00,230.00 Z
           M 217.00,231.00
           C 217.00,231.00 221.00,250.00 221.00,250.00
             221.00,250.00 224.00,231.00 224.00,231.00
             224.00,231.00 243.00,231.00 243.00,231.00
             243.00,231.00 235.93,262.00 235.93,262.00
             235.93,262.00 239.00,275.00 239.00,275.00
             239.00,275.00 245.00,296.00 245.00,296.00
             245.00,296.00 224.00,296.00 224.00,296.00
             224.00,296.00 220.00,277.00 220.00,277.00
             220.00,277.00 217.00,296.00 217.00,296.00
             217.00,296.00 200.00,296.00 200.00,296.00
             200.00,296.00 207.40,262.00 207.40,262.00
             207.40,262.00 200.00,231.00 200.00,231.00
             200.00,231.00 217.00,231.00 217.00,231.00 Z
           M 263.00,231.00
           C 263.00,231.00 269.00,271.00 269.00,271.00
             269.00,271.00 271.00,231.00 271.00,231.00
             271.00,231.00 290.00,231.00 290.00,231.00
             290.00,231.00 284.15,282.00 284.15,282.00
             283.34,288.77 282.88,297.91 276.90,302.30
             271.39,306.35 256.09,305.00 249.00,305.00
             249.00,305.00 249.00,295.00 249.00,295.00
             249.00,295.00 256.00,294.00 256.00,294.00
             256.00,294.00 244.00,231.00 244.00,231.00
             244.00,231.00 263.00,231.00 263.00,231.00 Z
           M 85.00,248.00
           C 85.00,248.00 85.00,277.00 85.00,277.00
             85.00,278.38 84.64,287.30 88.45,284.18
             90.04,282.87 89.96,279.86 90.00,278.00
             90.00,278.00 90.00,251.00 90.00,251.00
             89.99,247.41 90.62,244.99 87.82,242.45
             84.53,242.75 85.05,245.13 85.00,248.00 Z
           M 172.00,251.00
           C 172.00,251.00 172.00,278.00 172.00,278.00
             172.08,282.17 172.04,283.00 175.00,286.00
             178.64,279.10 177.02,259.59 177.00,251.00
             176.99,246.32 177.25,245.27 175.00,241.00
             171.48,244.56 172.01,246.25 172.00,251.00 Z" />
    Sorry, your browser does not support inline SVG.
  </g>
</svg>
